{"title":"Government Engaging in Every Crime Imaginable - Alex Jones","uid":7245531,"size":296337602,"categoryP":"video","categoryS":"handheld","magnet":"?xt=urn:btih:23eac1d219e537acb9c3ef68f3d0c7c4da53be73&amp;dn=Government+Engaging+in+Every+Crime+Imaginable+-+Alex+Jones+&amp;tr=udp%3A%2F%2Ftracker.openbittorrent.com%3A80&amp;tr=udp%3A%2F%2Fopen.demonii.com%3A1337&amp;tr=udp%3A%2F%2Ftracker.coppersurfer.tk%3A6969&amp;tr=udp%3A%2F%2Fexodus.desync.com%3A6969","seeders":2,"leechers":0,"uploader":"DEMONOID-Deimos","files":-1,"time":1336270367,"description":"-----------------------------------------------------------\n|Government Engaging in Every Crime Imaginable - Alex Jones|\n-----------------------------------------------------------\n\n\n -------- \n | PLOT |\n --------\n\nOn the Tuesday, April 3.2012 edition of the Alex Jones Show, Alex confronts head-on the ongoing effort by the global elite to take down the Constitution. Obama directly criticized the Constitution on Monday as part of an orchestrated push to legitimize his unconstitutional Obamacare agenda. Minions of the global elite are now coming out of the woodwork in an effort to neuter the Second Amendment under cover of the inflammatory Trayvon Martin case. Alex covers these explosive issues and much more on today's info-packed show.\n\n\n----------\n | INFO |\n----------\nVideo:\n------\nID : 1\nFormat : AVC\nFormat/Info : Advanced Video Codec\nFormat profile : &lt;a class=&quot;__cf_email__&quot; href=&quot;/cdn-cgi/l/email-protection&quot; data-cfemail=&quot;da98bba9bfb6b3b4bf9a96e9f4ea&quot;&gt;[email&amp;#160;protected]&lt;/a&gt;&lt;script cf-hash='f9e31' type=&quot;text/javascript&quot;&gt;\n/* &lt;![CDATA[ */!function(){try{var t=&quot;currentScript&quot;in document?document.currentScript:function(){for(var t=document.getElementsByTagName(&quot;script&quot;),e=t.length;e--;)if(t[e].getAttribute(&quot;cf-hash&quot;))return t[e]}();if(t&amp;&amp;t.previousSibling){var e,r,n,i,c=t.previousSibling,a=c.getAttribute(&quot;data-cfemail&quot;);if(a){for(e=&quot;&quot;,r=parseInt(a.substr(0,2),16),n=2;a.length-n;n+=2)i=parseInt(a.substr(n,2),16)^r,e+=String.fromCharCode(i);e=document.createTextNode(e),c.parentNode.replaceChild(e,c)}}}catch(u){}}();/* ]]&gt; */&lt;/script&gt;\nFormat settings, CABAC : No\nFormat settings, ReFrames : 1 frame\nCodec ID : avc1\nCodec ID/Info : Advanced Video Coding\nDuration : 1h 7mn\nBit rate : 487 Kbps\nMaximum bit rate : 1 861 Kbps\nWidth : 640 pixels\nHeight : 360 pixels\nDisplay aspect ratio : 16:9\nFrame rate mode : Constant\nFrame rate : 29.970 fps\nColor space : YUV\nChroma subsampling : 4:2:0\nBit depth : 8 bits\nScan type : Progressive\nBits/(Pixel*Frame) : 0.071\nStream size : 235 MiB (83%)\nAudio:\n------\nID : 2\nFormat : AAC\nFormat/Info : Advanced Audio Codec\nFormat profile : LC\nCodec ID : 40\nDuration : 1h 7mn\nBit rate mode : Variable\nBit rate : 96.0 Kbps\nMaximum bit rate : 155 Kbps\nChannel(s) : 2 channels\nChannel positions : Front: L R\nSampling rate : 44.1 KHz\nCompression mode : Lossy\nStream size : 46.2 MiB (16%)","torrent":{"xt":"urn:btih:23eac1d219e537acb9c3ef68f3d0c7c4da53be73","amp;dn":"Government+Engaging+in+Every+Crime+Imaginable+-+Alex+Jones+","amp;tr":["udp%3A%2F%2Ftracker.openbittorrent.com%3A80","udp%3A%2F%2Fopen.demonii.com%3A1337","udp%3A%2F%2Ftracker.coppersurfer.tk%3A6969","udp%3A%2F%2Fexodus.desync.com%3A6969"],"infoHash":"23eac1d219e537acb9c3ef68f3d0c7c4da53be73","infoHashBuffer":{"type":"Buffer","data":[35,234,193,210,25,229,55,172,185,195,239,104,243,208,199,196,218,83,190,115]},"announce":[],"urlList":[]}}